if (_typeface_js && _typeface_js.loadFace) _typeface_js.loadFace({"glyphs":{"S":{"x_min":48.328125,"x_max":726,"ha":768,"o":"m 726 286 q 709 389 726 344 q 657 470 692 435 q 565 535 621 505 q 431 592 510 564 q 360 620 388 607 q 317 647 333 633 q 295 676 301 661 q 289 710 289 690 q 316 763 289 743 q 395 784 343 784 q 515 763 451 784 q 645 706 579 743 l 681 906 q 552 953 618 936 q 392 970 485 970 q 263 951 323 970 q 160 898 203 933 q 90 810 116 863 q 65 689 65 757 q 81 583 65 628 q 131 505 97 539 q 218 445 165 472 q 342 390 270 418 q 422 357 391 372 q 470 327 453 341 q 495 296 488 312 q 502 259 502 280 q 470 196 502 218 q 386 175 439 175 q 236 199 314 175 q 83 263 158 223 l 48 61 q 203 8 121 27 q 383 -11 285 -11 q 516 6 453 -11 q 625 60 578 23 q 698 152 671 97 q 726 286 726 208 "},"/":{"x_min":-40.28125,"x_max":575,"ha":558,"o":"m 575 766 l 438 796 l -40 -95 l 97 -123 l 575 766 "},"K":{"x_min":87,"x_max":902.78125,"ha":903,"o":"m 902 29 l 551 515 l 890 959 l 626 959 l 325 549 l 325 959 l 87 959 l 87 0 l 325 0 l 325 446 l 647 -9 l 902 29 "},"7":{"x_min":28.0625,"x_max":660,"ha":710,"o":"m 660 545 l 660 723 l 28 723 l 55 526 l 425 526 l 107 -204 l 318 -257 l 660 545 "},"d":{"x_min":75,"x_max":715,"ha":757,"o":"m 715 362 q 690 510 715 443 q 618 624 666 577 q 499 697 570 671 q 333 723 427 723 l 75 723 l 75 1 l 338 1 q 497 27 427 1 q 615 101 567 53 q 689 216 663 149 q 715 362 715 282 m 505 360 q 458 211 505 260 q 330 162 412 162 l 278 162 l 278 562 l 330 562 q 459 511 413 562 q 505 360 505 460 "},",":{"x_min":30.5625,"x_max":329.171875,"ha":358,"o":"m 329 239 l 91 239 l 30 -176 l 155 -205 l 329 239 "},"Y":{"x_min":11.4375,"x_max":925.4375,"ha":934,"o":"m 925 959 l 676 959 l 472 569 l 264 968 l 11 933 l 342 350 l 342 0 l 581 0 l 581 353 l 925 959 "},"E":{"x_min":87,"x_max":696.390625,"ha":742,"o":"m 696 0 l 696 190 l 320 190 l 320 397 l 628 397 l 597 593 l 320 593 l 320 769 l 683 769 l 683 959 l 87 959 l 87 0 l 696 0 "},"y":{"x_min":4.5625,"x_max":714.171875,"ha":718,"o":"m 714 723 l 500 723 l 362 446 l 218 731 l 4 702 l 249 257 l 249 1 l 460 1 l 460 264 l 714 723 "},"\"":{"x_min":65.28125,"x_max":656.953125,"ha":722,"o":"m 656 924 l 405 924 l 462 537 l 595 507 l 656 924 m 316 924 l 65 924 l 120 537 l 255 507 l 316 924 "},"‹":{"x_min":30.5625,"x_max":412.5,"ha":463,"o":"m 412 709 l 261 709 l 30 354 l 268 -10 l 404 17 l 261 354 l 412 709 "},"„":{"x_min":67,"x_max":635.21875,"ha":678,"o":"m 635 239 l 388 239 l 388 -148 l 508 -176 l 635 239 m 315 239 l 67 239 l 67 -148 l 187 -176 l 315 239 "},"g":{"x_min":42,"x_max":673,"ha":733,"o":"m 673 59 l 673 417 l 362 417 l 383 278 l 495 278 l 495 158 q 462 147 479 151 q 417 143 444 143 q 286 197 330 143 q 243 355 243 251 q 291 513 243 462 q 412 565 339 565 q 512 550 467 565 q 602 511 557 535 l 629 684 q 531 722 585 708 q 406 736 477 736 q 257 709 324 736 q 142 633 190 683 q 68 515 94 584 q 42 359 42 445 q 66 207 42 276 q 135 89 90 138 q 247 13 180 40 q 396 -14 313 -14 q 549 6 482 -14 q 673 59 616 27 "},"–":{"x_min":57,"x_max":574,"ha":631,"o":"m 574 306 l 574 502 l 57 502 l 57 306 l 574 306 "},"ƒ":{"x_min":37.890625,"x_max":574,"ha":623,"o":"m 168 419 l 62 419 l 37 245 l 140 245 l 62 -257 l 287 -219 q 293 -185 287 -219 q 307 -98 299 -150 q 325 12 315 -46 q 343 124 335 72 q 357 210 351 176 q 362 245 362 245 l 523 245 l 523 419 l 390 419 q 393 430 390 419 q 397 453 396 442 q 399 464 399 463 q 431 539 405 516 q 504 562 457 562 q 574 555 539 562 l 574 727 q 521 732 549 732 q 462 732 494 732 q 353 720 401 732 q 270 681 305 708 q 212 610 235 653 q 180 499 190 566 l 168 419 "},"e":{"x_min":75,"x_max":573.609375,"ha":621,"o":"m 573 0 l 573 154 l 275 154 l 275 290 l 516 290 l 493 443 l 275 443 l 275 567 l 565 567 l 565 723 l 75 723 l 75 0 l 573 0 "},"J":{"x_min":26.171875,"x_max":511,"ha":590,"o":"m 511 291 l 511 958 l 272 958 l 272 328 q 236 217 272 248 q 138 187 201 187 q 74 191 98 187 q 26 202 49 195 l 58 2 q 113 -6 77 -3 q 190 -10 149 -10 q 317 6 258 -10 q 419 59 376 23 q 486 152 462 95 q 511 291 511 209 "},"|":{"x_min":121,"x_max":296,"ha":417,"o":"m 296 -230 l 296 1003 l 121 975 l 121 -258 l 296 -230 "},"^":{"x_min":80.5625,"x_max":547.21875,"ha":631,"o":"m 547 778 l 413 964 l 222 964 l 80 760 l 213 760 l 316 840 l 423 754 l 547 778 "},"q":{"x_min":42,"x_max":740.953125,"ha":781,"o":"m 734 374 q 707 524 734 458 q 635 638 681 591 q 526 710 589 684 q 392 736 464 736 q 253 708 317 736 q 142 632 189 681 q 68 513 94 583 q 42 359 42 444 q 62 218 42 278 q 121 112 82 158 q 216 33 160 66 q 344 -26 272 0 l 707 -155 l 740 15 l 575 67 q 690 187 646 112 q 734 374 734 262 m 528 359 q 518 274 528 313 q 492 207 509 235 q 448 162 475 178 q 387 147 422 147 q 326 163 353 147 q 282 208 300 180 q 255 276 264 237 q 246 359 246 315 q 255 444 246 405 q 282 511 264 483 q 326 556 300 540 q 387 572 353 572 q 447 555 421 572 q 491 510 473 538 q 518 442 509 481 q 528 359 528 403 "},"b":{"x_min":75,"x_max":659,"ha":699,"o":"m 659 208 q 623 317 659 276 q 529 378 587 358 q 601 435 572 397 q 631 534 631 472 q 559 677 631 631 q 366 723 487 723 l 75 723 l 75 0 l 355 0 q 479 11 424 0 q 574 48 535 23 q 636 113 614 73 q 659 208 659 153 m 446 507 q 418 447 446 467 q 345 427 391 427 l 269 427 l 269 585 l 349 585 q 420 565 394 585 q 446 507 446 546 m 460 221 q 430 156 460 176 q 351 136 400 136 l 269 136 l 269 309 l 349 309 q 460 221 460 309 "},"D":{"x_min":87,"x_max":925,"ha":979,"o":"m 925 480 q 892 676 925 587 q 795 826 859 764 q 636 924 731 889 q 416 959 541 959 l 87 959 l 87 0 l 423 0 q 638 34 544 0 q 795 133 731 69 q 892 285 859 197 q 925 480 925 373 m 686 479 q 666 346 686 401 q 611 255 647 290 q 525 202 576 219 q 411 185 474 185 l 325 185 l 325 774 l 411 774 q 522 756 472 774 q 609 702 573 739 q 665 610 645 665 q 686 479 686 554 "},"z":{"x_min":42,"x_max":622.546875,"ha":666,"o":"m 622 1 l 601 152 l 283 152 l 617 586 l 617 723 l 61 723 l 85 570 l 376 570 l 42 136 l 42 1 l 622 1 "},"w":{"x_min":22.21875,"x_max":1068.0625,"ha":1090,"o":"m 1068 723 l 872 723 l 777 231 l 666 723 l 448 723 l 334 231 l 231 732 l 22 696 l 198 -1 l 426 -1 l 544 486 l 659 -1 l 891 -1 l 1068 723 "},"$":{"x_min":28.78125,"x_max":608,"ha":644,"o":"m 428 721 q 432 741 428 721 q 438 778 435 761 q 441 798 441 796 l 355 818 l 339 728 l 331 728 q 122 671 193 728 q 51 509 51 614 q 103 378 51 427 q 280 298 156 329 l 254 130 q 149 155 201 137 q 52 197 98 173 l 28 61 q 115 25 64 41 q 225 2 165 9 l 207 -117 l 294 -137 l 315 -4 l 319 -4 q 533 55 459 -4 q 608 223 608 115 q 551 366 608 316 q 377 444 495 415 l 400 590 q 483 569 444 583 q 555 537 523 554 l 578 673 q 428 721 510 707 m 327 125 l 352 283 q 428 249 409 269 q 447 200 447 230 q 419 145 447 165 q 327 125 391 125 m 327 599 l 305 460 q 233 490 252 473 q 214 535 214 507 q 238 582 214 565 q 319 599 262 599 l 327 599 "},"™":{"x_min":37.78125,"x_max":1060,"ha":1128,"o":"m 1060 479 l 1060 958 l 882 958 l 789 645 l 696 958 l 511 958 l 511 479 l 617 479 l 617 777 l 716 476 l 836 476 l 935 777 l 935 479 l 1060 479 m 460 854 l 445 958 l 37 958 l 37 854 l 179 854 l 179 479 l 308 479 l 308 854 l 460 854 "},"\\":{"x_min":-16.671875,"x_max":597.21875,"ha":558,"o":"m -16 766 l 461 -123 l 597 -95 l 119 796 l -16 766 "},"’":{"x_min":74,"x_max":326.78125,"ha":358,"o":"m 326 959 l 74 959 l 74 550 l 187 521 l 326 959 "},"~":{"x_min":51.390625,"x_max":516.671875,"ha":568,"o":"m 516 491 l 418 515 q 399 466 409 479 q 373 453 388 453 q 340 458 358 453 q 283 482 322 464 q 233 503 254 496 q 184 510 212 510 q 99 466 131 510 q 51 315 66 423 l 151 294 q 170 343 159 330 q 195 356 180 356 q 228 349 211 356 q 286 326 245 343 q 335 306 313 314 q 384 299 356 299 q 469 342 436 299 q 516 491 502 385 "},"-":{"x_min":57,"x_max":428,"ha":484,"o":"m 428 304 l 428 504 l 57 504 l 57 304 l 428 304 "},"Q":{"x_min":53,"x_max":969,"ha":1022,"o":"m 969 494 q 936 693 969 604 q 843 845 903 782 q 699 942 784 908 q 511 977 614 977 q 323 940 407 977 q 178 838 239 904 q 85 681 118 772 q 53 478 53 589 q 136 171 53 287 q 386 -5 219 54 l 924 -198 l 969 4 l 744 75 q 909 237 849 131 q 969 494 969 343 m 731 478 q 716 350 731 408 q 673 250 701 292 q 603 185 644 208 q 510 163 563 163 q 417 185 458 163 q 349 250 377 208 q 306 350 321 292 q 291 478 291 408 q 305 605 291 547 q 348 704 320 663 q 417 768 377 745 q 510 791 457 791 q 603 768 561 791 q 672 704 644 745 q 715 605 700 663 q 731 478 731 547 "},"M":{"x_min":94,"x_max":1154,"ha":1248,"o":"m 1154 0 l 1154 959 l 814 959 l 627 298 l 441 959 l 94 959 l 94 0 l 287 0 l 287 657 l 495 -1 l 719 -1 l 926 657 l 926 0 l 1154 0 "},"C":{"x_min":53,"x_max":791,"ha":841,"o":"m 791 53 l 760 248 q 653 200 706 218 q 542 182 600 182 q 442 201 488 182 q 362 258 396 220 q 309 351 328 295 q 291 479 291 406 q 356 698 291 620 q 529 776 421 776 q 645 753 592 776 q 743 698 699 731 l 777 912 q 658 958 724 941 q 511 975 593 975 q 324 938 408 975 q 180 837 240 902 q 86 680 119 772 q 53 477 53 588 q 84 273 53 365 q 176 117 116 181 q 323 17 236 52 q 518 -17 410 -17 q 665 2 597 -17 q 791 53 732 21 "},"[":{"x_min":82,"x_max":429.734375,"ha":462,"o":"m 429 -133 l 410 -5 l 270 -5 l 270 595 l 421 595 l 421 723 l 82 723 l 82 -133 l 429 -133 "},"L":{"x_min":87,"x_max":651.390625,"ha":674,"o":"m 651 0 l 619 206 l 325 206 l 325 959 l 87 959 l 87 0 l 651 0 "},"!":{"x_min":75.328125,"x_max":336.046875,"ha":410,"o":"m 336 958 l 75 958 l 143 330 l 270 358 l 336 958 m 318 0 l 318 239 l 92 239 l 92 0 l 318 0 "}," ":{"x_min":0,"x_max":0,"ha":290},"{":{"x_min":22.328125,"x_max":512.671875,"ha":549,"o":"m 512 -133 l 493 -5 l 416 -5 q 346 51 346 -5 q 353 111 346 83 q 360 172 360 139 q 332 252 360 225 q 247 293 305 279 l 247 295 q 332 336 305 308 q 360 418 360 365 q 353 480 360 453 q 346 539 346 507 q 416 595 346 595 l 508 595 l 508 723 l 330 723 q 205 685 247 723 q 164 583 164 647 q 171 508 164 547 q 179 435 179 469 q 149 371 179 389 q 66 353 119 353 l 22 353 l 40 236 l 66 236 q 149 217 119 236 q 179 152 179 199 q 171 80 179 118 q 164 4 164 42 q 205 -95 164 -57 q 330 -133 247 -133 l 512 -133 "},"X":{"x_min":16.671875,"x_max":900,"ha":918,"o":"m 448 328 l 645 -9 l 900 30 q 877 66 900 30 q 822 154 855 101 q 749 268 788 207 q 676 383 709 330 q 620 471 643 436 q 598 505 598 505 l 877 959 l 633 959 l 468 665 q 450 697 468 665 q 406 773 431 729 q 355 863 381 817 q 312 937 329 908 q 294 968 295 965 l 41 928 l 319 487 l 16 0 l 259 0 l 448 328 "},"P":{"x_min":87,"x_max":772,"ha":797,"o":"m 772 645 q 671 879 772 801 q 395 958 570 958 l 87 958 l 87 0 l 324 0 l 324 318 l 385 318 q 543 338 473 318 q 665 400 614 359 q 744 502 716 441 q 772 645 772 563 m 541 641 q 498 531 541 566 q 377 497 456 497 l 322 497 l 322 779 l 381 779 q 541 641 541 779 "},"%":{"x_min":37,"x_max":955,"ha":993,"o":"m 415 519 q 400 612 415 572 q 360 680 385 652 q 299 722 334 708 q 226 736 264 736 q 152 722 187 736 q 91 680 117 708 q 51 612 66 652 q 37 519 37 572 q 51 426 37 466 q 91 358 66 385 q 152 317 117 331 q 226 304 187 304 q 299 317 264 304 q 360 358 334 331 q 400 426 385 385 q 415 519 415 466 m 778 709 l 671 734 l 213 16 l 321 -8 l 778 709 m 955 205 q 900 367 955 312 q 766 422 845 422 q 691 408 725 422 q 631 366 657 394 q 591 297 606 338 q 577 203 577 256 q 631 44 577 98 q 766 -10 686 -10 q 839 3 804 -10 q 900 44 874 17 q 940 112 925 71 q 955 205 955 152 m 291 519 q 275 434 291 465 q 226 404 260 404 q 176 434 192 404 q 161 519 161 465 q 176 605 161 574 q 226 636 191 636 q 274 605 257 636 q 291 519 291 574 m 831 205 q 815 120 831 150 q 767 91 800 91 q 717 120 732 91 q 702 203 702 150 q 716 290 702 259 q 765 322 731 322 q 815 290 799 322 q 831 205 831 259 "},"#":{"x_min":47,"x_max":721,"ha":768,"o":"m 269 130 l 420 130 l 398 0 l 508 0 l 530 130 l 704 130 l 676 291 l 559 291 l 580 430 l 721 430 l 721 591 l 607 591 l 627 706 l 522 729 l 498 591 l 345 591 l 368 723 l 259 723 l 236 591 l 63 591 l 88 430 l 208 430 l 187 291 l 47 291 l 47 130 l 159 130 l 140 16 l 244 -7 l 269 130 m 451 288 l 292 288 l 316 434 l 475 434 l 451 288 "},"_":{"x_min":-3,"x_max":633,"ha":630,"o":"m 633 -144 l 633 -47 l -3 -47 l -3 -144 l 633 -144 "},"+":{"x_min":67,"x_max":710,"ha":786,"o":"m 710 278 l 710 443 l 474 443 l 474 688 l 303 688 l 303 443 l 67 443 l 67 278 l 303 278 l 303 32 l 474 32 l 474 278 l 710 278 "},"":{"x_min":69,"x_max":894,"ha":963,"o":"m 894 -278 l 894 1002 l 754 1002 l 713 1111 l 249 1111 l 208 1002 l 69 1002 l 69 232 q 101 218 88 232 q 113 187 113 205 q 101 155 113 168 q 69 143 88 143 l 69 -278 l 356 -278 l 367 -259 l 593 -259 l 604 -278 l 894 -278 m 555 782 l 635 782 l 635 763 l 576 763 l 576 671 l 628 671 l 628 651 l 576 651 l 576 542 l 555 542 l 555 782 m 255 782 l 276 782 l 276 672 l 341 672 l 341 782 l 362 782 l 362 543 l 341 543 l 341 653 l 276 653 l 276 543 l 255 543 l 255 782 m 638 547 l 638 569 q 652 563 644 566 q 666 561 660 561 q 689 591 689 561 l 689 782 l 711 782 l 711 591 q 667 542 711 542 q 651 543 660 542 q 638 547 642 544 m 726 449 l 737 449 l 737 415 l 766 449 l 780 449 l 755 420 l 781 385 l 769 385 l 747 413 l 737 403 l 737 385 l 726 385 l 726 449 m 677 406 l 660 406 l 660 385 l 650 385 l 650 449 l 678 449 q 695 442 689 449 q 701 429 701 436 q 687 408 701 413 l 703 385 l 691 385 l 677 406 m 591 383 q 568 392 576 383 q 559 416 559 402 q 568 439 559 429 q 591 450 576 450 q 615 439 606 450 q 625 416 625 429 q 615 392 625 402 q 591 383 606 383 m 513 417 l 531 449 l 544 449 l 519 408 l 519 385 l 508 385 l 508 408 l 482 449 l 495 449 l 513 417 m 268 449 l 313 449 l 313 439 l 279 439 l 279 422 l 309 422 l 309 413 l 279 413 l 279 395 l 313 395 l 313 385 l 268 385 l 268 449 m 183 449 l 193 449 l 227 404 l 227 449 l 239 449 l 239 385 l 229 385 l 194 429 l 194 385 l 183 385 l 183 449 m 334 449 l 345 449 l 359 400 l 360 400 l 375 449 l 386 449 l 400 400 l 402 400 l 416 449 l 427 449 l 407 383 l 396 383 l 381 431 l 380 431 l 366 383 l 355 383 l 334 449 m 453 665 q 474 709 474 687 q 469 728 474 720 q 456 735 464 735 q 442 728 448 735 q 437 709 437 720 q 441 688 437 698 q 453 665 446 679 m 474 587 l 446 641 q 426 595 426 620 q 432 569 426 580 q 449 558 438 558 q 464 567 456 558 q 474 587 471 576 m 677 415 q 690 427 690 415 q 676 439 690 439 l 661 439 l 661 415 l 677 415 m 590 393 q 606 399 600 393 q 613 416 613 406 q 606 432 613 424 q 590 440 600 440 q 575 432 581 440 q 570 416 570 424 q 575 399 570 406 q 590 393 581 393 m 484 608 q 490 628 487 617 q 496 649 494 639 l 515 645 q 507 617 512 630 q 496 591 502 603 l 519 550 l 503 538 l 487 572 l 485 572 q 471 549 480 559 q 448 538 461 538 q 416 553 428 538 q 405 592 405 569 q 437 655 405 630 q 423 682 428 671 q 417 709 417 694 q 427 738 417 725 q 456 752 438 752 q 484 738 475 752 q 494 709 494 725 q 484 678 494 693 q 461 651 475 664 l 484 608 "},"‚":{"x_min":67,"x_max":317,"ha":358,"o":"m 317 239 l 67 239 l 67 -148 l 189 -176 l 317 239 "},")":{"x_min":-2.609375,"x_max":402,"ha":455,"o":"m 402 340 q 336 588 402 480 q 169 773 271 696 l -2 732 q 144 548 93 646 q 196 337 196 450 q 155 154 196 232 q 40 19 115 77 l 62 -127 q 202 -52 139 -98 q 309 52 265 -6 q 377 184 353 112 q 402 340 402 257 "},"'":{"x_min":65.28125,"x_max":320.828125,"ha":386,"o":"m 320 924 l 65 924 l 120 537 l 261 507 l 320 924 "},"}":{"x_min":37.328125,"x_max":528.0625,"ha":549,"o":"m 528 238 l 508 355 l 483 355 q 399 373 430 355 q 369 436 369 391 q 377 509 369 471 q 385 583 385 547 q 343 685 385 647 q 219 723 302 723 l 37 723 l 55 595 l 133 595 q 204 539 204 595 q 197 479 204 507 q 190 417 190 452 q 216 337 190 364 q 301 296 242 310 l 301 295 q 216 252 242 281 q 190 171 190 224 q 197 109 190 136 q 204 50 204 82 q 133 -5 204 -5 l 40 -5 l 40 -133 l 219 -133 q 343 -95 302 -133 q 385 4 385 -57 q 377 80 385 42 q 369 154 369 118 q 399 219 369 200 q 483 238 430 238 l 528 238 "},"‰":{"x_min":75,"x_max":1035,"ha":1110,"o":"m 1035 480 q 1000 683 1035 592 q 902 839 965 774 q 750 940 839 904 q 555 977 662 977 q 360 940 448 977 q 209 838 272 904 q 110 681 145 772 q 75 478 75 589 q 109 275 75 366 q 207 119 144 184 q 359 18 270 54 q 554 -18 447 -18 q 748 18 659 -18 q 900 120 837 54 q 999 278 964 186 q 1035 480 1035 369 m 974 479 q 942 287 974 371 q 853 147 910 204 q 721 61 797 90 q 555 32 644 32 q 390 61 466 32 q 257 147 313 90 q 168 287 201 204 q 136 479 136 371 q 167 671 136 587 q 256 811 199 754 q 388 897 312 868 q 555 927 465 927 q 719 897 643 927 q 852 811 796 868 q 941 671 908 754 q 974 479 974 587 m 682 430 q 750 492 726 454 q 775 583 775 530 q 716 716 775 669 q 550 763 658 763 l 356 763 l 356 215 l 506 215 l 506 393 l 537 393 l 661 208 l 818 236 l 682 430 m 542 653 q 631 575 631 653 q 542 496 631 496 l 504 496 l 504 653 l 542 653 "},"a":{"x_min":11.109375,"x_max":754.171875,"ha":767,"o":"m 465 294 l 294 294 l 376 574 l 381 574 l 465 294 m 250 143 l 509 143 l 555 -11 l 754 26 l 516 726 l 258 726 l 11 0 l 206 0 l 250 143 "},"T":{"x_min":35,"x_max":826.5,"ha":846,"o":"m 826 757 l 793 958 l 35 958 l 35 757 l 300 757 l 300 0 l 539 0 l 539 757 l 826 757 "},"—":{"x_min":57,"x_max":1204,"ha":1261,"o":"m 1204 307 l 1204 500 l 57 500 l 57 307 l 1204 307 "},"=":{"x_min":101,"x_max":719,"ha":819,"o":"m 719 443 l 719 608 l 101 608 l 101 443 l 719 443 m 719 114 l 719 279 l 101 279 l 101 114 l 719 114 "},"N":{"x_min":87,"x_max":891,"ha":979,"o":"m 891 0 l 891 959 l 670 959 l 670 422 l 317 959 l 87 959 l 87 0 l 308 0 l 308 574 l 685 0 l 891 0 "},"2":{"x_min":51,"x_max":659.28125,"ha":705,"o":"m 659 0 l 635 162 l 331 162 l 492 284 q 559 341 531 313 q 607 395 588 368 q 634 452 625 422 q 644 519 644 481 q 569 677 644 622 q 370 733 495 733 q 205 712 278 733 q 66 656 132 691 l 95 480 q 216 535 157 513 q 325 557 274 557 q 390 538 368 557 q 412 488 412 519 q 392 433 412 458 q 332 376 373 408 l 51 150 l 51 0 l 659 0 "},"j":{"x_min":22.4375,"x_max":414,"ha":483,"o":"m 414 245 l 414 723 l 203 723 l 203 261 q 178 180 203 202 q 108 159 153 159 q 62 161 86 159 q 22 168 39 164 l 47 2 q 93 -3 62 0 q 165 -6 125 -6 q 265 8 219 -6 q 344 54 311 23 q 395 132 377 85 q 414 245 414 180 "},"Z":{"x_min":56,"x_max":806.5,"ha":852,"o":"m 806 0 l 775 189 l 346 189 l 794 786 l 794 959 l 75 959 l 104 770 l 503 770 l 56 172 l 56 0 l 806 0 "},"u":{"x_min":71,"x_max":688,"ha":759,"o":"m 688 284 l 688 723 l 485 723 l 485 280 q 460 187 485 221 q 378 153 436 153 q 294 187 318 153 q 271 280 271 222 l 271 723 l 71 723 l 71 283 q 150 61 71 136 q 376 -14 230 -14 q 605 61 522 -14 q 688 284 688 136 "},"1":{"x_min":18.453125,"x_max":413,"ha":503,"o":"m 413 0 l 413 728 l 225 728 l 18 627 l 43 451 l 199 512 l 199 0 l 413 0 "},"›":{"x_min":52.78125,"x_max":431.9375,"ha":463,"o":"m 431 354 l 200 706 l 52 706 l 200 354 l 55 11 l 195 -10 l 431 354 "},"k":{"x_min":75,"x_max":708.546875,"ha":716,"o":"m 708 25 l 471 389 l 701 723 l 479 723 l 278 404 l 278 723 l 75 723 l 75 0 l 278 0 l 278 337 l 494 -9 l 708 25 "},"<":{"x_min":79,"x_max":700,"ha":794,"o":"m 700 -20 l 700 162 l 287 359 l 700 558 l 700 740 l 79 432 l 79 286 l 700 -20 "},"t":{"x_min":29,"x_max":639.953125,"ha":659,"o":"m 639 548 l 614 723 l 29 723 l 29 548 l 222 548 l 222 0 l 433 0 l 433 548 l 639 548 "},"W":{"x_min":26.390625,"x_max":1350,"ha":1375,"o":"m 1350 959 l 1115 959 l 977 358 l 822 959 l 583 959 l 427 358 l 283 968 l 26 928 l 279 0 l 518 0 l 683 618 l 848 0 l 1088 0 l 1350 959 "},"v":{"x_min":13.890625,"x_max":737.5,"ha":750,"o":"m 737 723 l 530 723 l 381 210 l 226 732 l 13 698 l 251 -5 l 490 -5 l 737 723 "},">":{"x_min":94,"x_max":715,"ha":794,"o":"m 715 289 l 715 434 l 94 743 l 94 559 l 506 359 l 94 163 l 94 -18 l 715 289 "},"s":{"x_min":37.390625,"x_max":599,"ha":638,"o":"m 599 223 q 584 305 599 271 q 539 365 569 339 q 460 410 508 390 q 345 450 412 431 q 264 483 285 468 q 244 524 244 497 q 264 561 244 546 q 324 577 284 577 q 431 561 374 577 q 536 525 487 546 l 564 685 q 462 718 523 703 q 323 733 401 733 q 217 717 265 733 q 134 671 169 701 q 80 599 99 641 q 61 506 61 557 q 77 418 61 454 q 126 356 94 382 q 206 312 159 331 q 316 275 253 293 q 393 243 372 258 q 414 201 414 228 q 390 160 414 175 q 315 145 366 145 q 256 149 287 145 q 192 163 224 154 q 126 182 159 171 q 66 206 94 193 l 37 41 q 165 5 94 21 q 315 -11 237 -11 q 431 5 379 -11 q 521 52 483 22 q 578 125 558 82 q 599 223 599 169 "},"B":{"x_min":87,"x_max":775,"ha":817,"o":"m 775 276 q 726 427 775 373 q 600 507 678 481 q 698 582 659 533 q 738 710 738 630 q 657 893 738 828 q 413 959 576 959 l 87 959 l 87 0 l 406 0 q 677 68 579 0 q 775 276 775 137 m 527 683 q 492 600 527 630 q 391 571 457 571 l 312 571 l 312 788 l 396 788 q 496 760 465 788 q 527 683 527 732 m 551 291 q 511 200 551 230 q 399 171 471 171 l 312 171 l 312 418 l 396 418 q 511 386 471 418 q 551 291 551 354 "},"…":{"x_min":71,"x_max":1010,"ha":1081,"o":"m 1010 0 l 1010 238 l 789 238 l 789 0 l 1010 0 m 652 0 l 652 238 l 431 238 l 431 0 l 652 0 m 293 0 l 293 238 l 71 238 l 71 0 l 293 0 "},"?":{"x_min":36.171875,"x_max":668,"ha":703,"o":"m 407 0 l 407 239 l 182 239 l 182 0 l 407 0 m 375 396 q 593 515 518 441 q 668 710 668 589 q 586 906 668 836 q 358 977 505 977 q 176 949 254 977 q 36 879 98 921 l 65 685 q 193 756 126 728 q 327 784 261 784 q 416 759 386 784 q 446 692 446 735 q 404 608 446 642 q 261 543 363 574 l 225 529 l 225 318 l 370 350 l 375 396 "},"H":{"x_min":87,"x_max":894,"ha":982,"o":"m 894 0 l 894 959 l 656 959 l 656 600 l 325 600 l 325 959 l 87 959 l 87 0 l 325 0 l 325 392 l 656 392 l 656 0 l 894 0 "},"c":{"x_min":42,"x_max":606.171875,"ha":648,"o":"m 606 38 l 582 203 q 505 169 545 181 q 425 158 465 158 q 357 170 389 158 q 302 207 325 182 q 265 271 278 232 q 252 360 252 309 q 300 513 252 463 q 422 563 349 563 q 501 549 463 563 q 570 511 539 535 l 595 689 q 508 723 556 711 q 396 735 460 735 q 256 709 321 735 q 144 635 192 683 q 69 517 96 586 q 42 360 42 447 q 67 203 42 272 q 139 85 93 133 q 253 12 186 37 q 401 -12 319 -12 q 510 1 458 -12 q 606 38 563 14 "},"&":{"x_min":26,"x_max":730.453125,"ha":711,"o":"m 730 27 l 584 194 q 624 288 608 236 q 647 396 640 340 l 492 429 q 485 370 490 401 q 473 315 480 339 l 362 443 q 324 490 337 471 q 311 533 311 510 q 326 570 311 556 q 376 584 342 584 q 445 570 408 584 q 519 536 483 557 l 545 686 q 459 717 509 704 q 347 731 409 731 q 181 680 238 731 q 125 550 125 629 q 181 404 125 475 q 71 322 116 374 q 26 190 26 271 q 91 41 26 97 q 267 -14 156 -14 q 381 6 331 -14 q 474 62 431 26 l 540 -8 l 730 27 m 398 157 q 302 124 361 124 q 234 148 262 124 q 207 212 207 172 q 263 310 207 269 l 398 157 "},"I":{"x_min":93,"x_max":331,"ha":424,"o":"m 331 0 l 331 959 l 93 959 l 93 0 l 331 0 "},"•":{"x_min":97.21875,"x_max":572.21875,"ha":669,"o":"m 572 477 l 538 696 l 334 728 l 131 696 l 97 477 l 131 261 l 334 229 l 538 261 l 572 477 "},"G":{"x_min":53,"x_max":875,"ha":947,"o":"m 875 83 l 875 550 l 473 550 l 501 374 l 668 374 l 668 202 q 609 179 638 187 q 539 172 579 172 q 430 194 476 172 q 352 257 383 216 q 306 354 321 298 q 291 479 291 411 q 306 601 291 546 q 352 696 321 657 q 428 758 382 736 q 536 781 474 781 q 674 757 611 781 q 791 698 737 733 l 823 906 q 692 957 765 938 q 530 977 619 977 q 331 940 419 977 q 181 838 243 904 q 86 681 119 772 q 53 478 53 589 q 84 275 53 366 q 175 119 115 184 q 323 18 234 54 q 525 -18 411 -18 q 712 8 625 -18 q 875 83 800 34 "},"(":{"x_min":53,"x_max":457.609375,"ha":455,"o":"m 457 -69 q 310 114 361 16 q 259 325 259 212 q 298 507 259 430 q 413 643 338 584 l 392 790 q 251 715 314 761 q 145 609 189 669 q 77 477 101 550 q 53 323 53 405 q 117 74 53 182 q 284 -109 182 -33 l 457 -69 "},"`":{"x_min":133.328125,"x_max":473.609375,"ha":631,"o":"m 473 802 l 390 1011 l 133 970 l 336 802 l 473 802 "},"U":{"x_min":76,"x_max":879,"ha":955,"o":"m 879 380 l 879 959 l 640 959 l 640 378 q 599 235 640 286 q 477 185 559 185 q 355 236 396 185 q 315 380 315 287 l 315 959 l 76 959 l 76 379 q 105 205 76 279 q 187 81 134 130 q 313 8 239 32 q 474 -15 387 -15 q 635 9 562 -15 q 763 82 709 33 q 848 206 817 132 q 879 380 879 280 "},"◊":{"x_min":92.671875,"x_max":1059,"ha":1127,"o":"m 1059 479 l 1059 958 l 881 958 l 788 645 l 695 958 l 510 958 l 510 479 l 616 479 l 616 777 l 715 476 l 835 476 l 934 777 l 934 479 l 1059 479 m 252 472 q 373 507 324 472 q 423 619 423 542 q 414 672 423 649 q 388 712 406 695 q 343 745 370 730 q 277 776 316 760 q 228 803 241 791 q 216 831 216 815 q 227 855 216 845 q 261 865 238 865 q 385 823 314 865 l 400 931 q 340 955 373 946 q 263 965 307 965 q 148 927 195 965 q 101 821 101 890 q 108 769 101 791 q 132 730 116 748 q 175 699 149 713 q 236 669 200 684 q 291 641 277 653 q 305 609 305 628 q 291 581 305 591 q 256 572 278 572 q 186 584 223 572 q 110 619 149 597 l 92 510 q 169 481 130 491 q 252 472 207 472 "},"F":{"x_min":87,"x_max":660.5,"ha":698,"o":"m 660 760 l 660 959 l 87 959 l 87 0 l 323 0 l 323 364 l 606 364 l 573 565 l 323 565 l 323 760 l 660 760 "},"r":{"x_min":75,"x_max":687.5,"ha":703,"o":"m 687 25 l 522 277 q 616 362 583 308 q 650 483 650 416 q 576 657 650 592 q 355 723 502 723 l 75 723 l 75 0 l 275 0 l 275 222 l 332 222 l 477 -12 l 687 25 m 453 475 q 334 371 453 371 l 273 371 l 273 570 l 337 570 q 421 546 390 570 q 453 475 453 522 "},":":{"x_min":74,"x_max":299,"ha":371,"o":"m 299 445 l 299 681 l 74 681 l 74 445 l 299 445 m 299 0 l 299 236 l 74 236 l 74 0 l 299 0 "},"x":{"x_min":9.71875,"x_max":697.21875,"ha":717,"o":"m 697 26 l 486 378 l 695 723 l 479 723 l 361 505 l 238 732 l 29 698 l 229 360 l 9 1 l 225 1 l 355 232 l 487 -10 l 697 26 "},"*":{"x_min":43.0625,"x_max":565.28125,"ha":608,"o":"m 565 758 l 550 802 l 372 802 l 330 967 l 276 967 l 236 802 l 58 802 l 43 758 l 191 663 l 126 497 l 168 469 l 304 581 l 438 469 l 481 497 l 416 663 l 565 758 "},"†":{"x_min":54,"x_max":657,"ha":711,"o":"m 450 849 l 450 959 l 262 959 l 262 849 l 331 662 l 379 662 l 450 849 m 657 519 l 657 695 l 598 695 l 411 629 l 411 583 l 598 519 l 657 519 m 300 583 l 300 629 l 112 695 l 54 695 l 54 519 l 112 519 l 300 583 m 432 15 l 432 388 l 379 553 l 331 553 l 278 388 l 278 15 l 333 -158 l 376 -158 l 432 15 "},"V":{"x_min":18.0625,"x_max":943.0625,"ha":961,"o":"m 943 959 l 698 959 l 490 296 l 276 968 l 18 929 l 354 -4 l 597 -4 l 943 959 "},"h":{"x_min":75,"x_max":698,"ha":773,"o":"m 698 0 l 698 723 l 497 723 l 497 457 l 278 457 l 278 723 l 75 723 l 75 0 l 278 0 l 278 283 l 497 283 l 497 0 l 698 0 "},"0":{"x_min":42,"x_max":728,"ha":771,"o":"m 728 360 q 702 517 728 447 q 630 636 676 587 q 521 711 584 685 q 385 738 458 738 q 248 711 311 738 q 139 635 185 685 q 67 516 93 586 q 42 360 42 446 q 67 204 42 273 q 139 86 93 135 q 248 11 185 37 q 385 -15 311 -15 q 521 11 458 -15 q 630 86 584 37 q 702 204 676 135 q 728 360 728 273 m 518 360 q 481 208 518 257 q 384 159 444 159 q 289 208 326 159 q 253 360 253 257 q 289 514 253 464 q 384 564 325 564 q 480 514 443 564 q 518 360 518 464 "},".":{"x_min":68,"x_max":293,"ha":358,"o":"m 293 0 l 293 239 l 68 239 l 68 0 l 293 0 "},"”":{"x_min":74,"x_max":636.609375,"ha":669,"o":"m 322 959 l 74 959 l 74 550 l 183 521 l 322 959 m 636 959 l 388 959 l 388 550 l 496 521 l 636 959 "},"@":{"x_min":53,"x_max":1106,"ha":1160,"o":"m 635 298 q 561 222 589 244 q 509 201 533 201 q 471 217 485 201 q 458 273 458 233 q 471 366 458 323 q 507 443 484 410 q 559 496 530 477 q 620 516 588 516 q 674 507 653 516 l 635 298 m 637 178 q 707 90 655 122 q 830 59 759 59 q 947 86 895 59 q 1034 162 998 113 q 1087 280 1069 211 q 1106 432 1106 349 q 1072 626 1106 541 q 978 770 1039 712 q 831 859 917 828 q 642 890 746 890 q 413 839 521 890 q 225 702 305 788 q 99 502 146 616 q 53 263 53 388 q 85 63 53 149 q 178 -79 118 -22 q 325 -165 239 -136 q 520 -195 412 -195 q 692 -176 613 -195 q 830 -129 772 -157 l 821 -79 q 684 -128 759 -111 q 526 -146 609 -146 q 360 -123 436 -146 q 229 -50 284 -100 q 144 76 175 -1 q 114 265 114 153 q 156 491 114 385 q 271 674 198 596 q 437 795 343 751 q 636 840 532 840 q 800 814 725 840 q 929 739 875 789 q 1014 612 983 689 q 1045 431 1045 535 q 999 220 1045 296 q 883 145 954 145 q 815 167 834 145 q 796 220 796 189 q 799 260 796 239 q 805 297 802 281 l 862 602 q 751 637 811 623 q 630 651 692 651 q 499 620 562 651 q 390 534 437 589 q 314 402 342 478 q 286 238 286 327 q 327 104 286 149 q 435 59 369 59 q 535 87 488 59 q 637 178 583 116 "},"f":{"x_min":75,"x_max":555.5625,"ha":592,"o":"m 555 565 l 555 723 l 75 723 l 75 0 l 275 0 l 275 271 l 508 271 l 484 429 l 275 429 l 275 565 l 555 565 "},";":{"x_min":23.671875,"x_max":322.28125,"ha":371,"o":"m 307 445 l 307 681 l 82 681 l 82 445 l 307 445 m 322 237 l 84 237 l 23 -175 l 150 -204 l 322 237 "},"“":{"x_min":32.375,"x_max":594,"ha":669,"o":"m 281 942 l 172 971 l 32 534 l 281 534 l 281 942 m 594 942 l 485 971 l 346 534 l 594 534 l 594 942 "},"i":{"x_min":79,"x_max":282,"ha":361,"o":"m 282 0 l 282 723 l 79 723 l 79 0 l 282 0 "},"6":{"x_min":47,"x_max":735,"ha":777,"o":"m 267 563 q 378 708 295 651 q 608 797 461 765 l 578 979 q 368 916 465 962 q 199 795 270 869 q 87 621 127 722 q 47 395 47 520 q 72 216 47 293 q 142 88 97 140 q 250 11 187 37 q 391 -14 313 -14 q 530 11 466 -14 q 638 81 593 36 q 709 189 683 126 q 735 329 735 252 q 661 544 735 470 q 470 618 587 618 q 267 563 369 618 m 254 400 q 327 435 290 423 q 406 448 365 448 q 496 415 465 448 q 528 312 528 382 q 491 199 528 241 q 397 158 455 158 q 290 215 327 158 q 254 385 254 273 l 254 400 "},"A":{"x_min":18.0625,"x_max":956.953125,"ha":975,"o":"m 956 29 l 623 963 l 362 963 l 18 0 l 250 0 l 316 199 l 654 199 l 722 -9 l 956 29 m 595 385 l 372 385 l 483 728 l 595 385 "},"‘":{"x_min":32.21875,"x_max":285,"ha":358,"o":"m 285 942 l 172 971 l 32 534 l 285 534 l 285 942 "},"n":{"x_min":75,"x_max":700,"ha":775,"o":"m 700 0 l 700 723 l 518 723 l 518 330 l 265 723 l 75 723 l 75 0 l 257 0 l 257 419 l 529 0 l 700 0 "},"O":{"x_min":53,"x_max":969,"ha":1022,"o":"m 969 480 q 936 683 969 592 q 844 839 903 774 q 700 940 785 904 q 511 977 615 977 q 322 940 407 977 q 178 838 237 904 q 85 681 118 772 q 53 478 53 589 q 85 275 53 366 q 178 119 118 184 q 321 18 237 54 q 508 -18 406 -18 q 698 18 613 -18 q 843 120 784 54 q 936 278 903 186 q 969 480 969 369 m 731 479 q 672 252 731 336 q 510 168 614 168 q 348 252 406 168 q 291 479 291 336 q 348 706 291 622 q 510 791 406 791 q 672 706 614 791 q 731 479 731 622 "},"3":{"x_min":33.71875,"x_max":644,"ha":694,"o":"m 644 53 q 630 137 644 101 q 591 199 616 173 q 535 240 567 224 q 467 265 503 256 q 527 301 497 280 q 578 351 556 322 q 613 417 600 380 q 627 501 627 454 q 554 672 627 609 q 350 735 481 735 q 176 707 253 735 q 40 641 99 680 l 67 465 q 187 529 128 505 q 307 554 247 554 q 387 529 361 554 q 413 463 413 505 q 404 417 413 440 q 376 378 396 395 q 321 347 356 360 q 236 327 287 334 l 174 319 l 174 149 l 211 153 q 254 158 230 158 q 301 158 278 158 q 397 133 364 158 q 430 61 430 109 q 368 -39 430 0 q 203 -78 307 -78 q 114 -73 158 -78 q 33 -62 69 -69 l 61 -250 q 126 -257 90 -257 q 203 -257 162 -257 q 374 -236 293 -257 q 514 -177 454 -216 q 609 -79 574 -137 q 644 53 644 -21 "},"]":{"x_min":32.265625,"x_max":380,"ha":462,"o":"m 380 -133 l 380 723 l 32 723 l 51 595 l 192 595 l 192 -5 l 40 -5 l 40 -133 l 380 -133 "},"m":{"x_min":86,"x_max":948,"ha":1036,"o":"m 948 0 l 948 723 l 645 723 l 516 253 l 388 723 l 86 723 l 86 0 l 250 0 l 250 528 l 404 -1 l 605 -1 l 758 528 l 758 0 l 948 0 "},"9":{"x_min":42,"x_max":730,"ha":777,"o":"m 509 146 q 399 5 482 62 q 169 -82 316 -50 l 197 -263 q 409 -200 311 -246 q 578 -81 507 -154 q 689 93 649 -8 q 730 324 730 195 q 704 503 730 426 q 634 632 679 580 q 526 710 589 684 q 385 736 463 736 q 247 710 310 736 q 138 640 183 685 q 67 530 93 594 q 42 387 42 466 q 61 260 42 314 q 115 168 80 205 q 199 112 150 131 q 306 94 247 94 q 509 146 404 94 m 523 307 q 450 274 486 287 q 371 262 414 262 q 281 297 312 262 q 250 403 250 332 q 285 519 250 474 q 379 564 321 564 q 485 505 447 564 q 523 334 523 447 l 523 307 "},"l":{"x_min":75,"x_max":540.5625,"ha":571,"o":"m 540 0 l 515 174 l 285 174 l 285 723 l 75 723 l 75 0 l 540 0 "},"8":{"x_min":44,"x_max":730,"ha":774,"o":"m 417 568 q 307 634 335 602 q 279 712 279 666 q 306 783 279 752 q 387 814 334 814 q 469 784 441 814 q 498 707 498 755 q 477 631 498 665 q 417 568 456 597 m 348 420 q 432 382 399 400 q 483 344 464 364 q 509 303 502 325 q 516 255 516 282 q 481 171 516 204 q 389 139 446 139 q 290 173 327 139 q 254 262 254 207 q 279 350 254 311 q 348 420 305 390 m 206 489 q 87 383 130 444 q 44 245 44 322 q 64 145 44 193 q 128 61 85 97 q 236 3 171 25 q 387 -18 300 -18 q 531 3 467 -18 q 639 62 595 25 q 707 150 684 100 q 730 259 730 201 q 691 403 730 347 q 567 502 652 459 q 666 598 631 544 q 702 719 702 653 q 681 816 702 771 q 620 893 660 861 q 524 944 581 925 q 394 963 467 963 q 264 944 323 963 q 164 893 206 926 q 98 812 122 860 q 74 705 74 765 q 108 580 74 632 q 206 489 142 527 "},"p":{"x_min":75,"x_max":635,"ha":663,"o":"m 635 477 q 554 660 635 598 q 334 723 473 723 l 75 723 l 75 0 l 276 0 l 276 219 l 324 219 q 554 286 473 219 q 635 477 635 353 m 447 470 q 417 393 447 421 q 326 366 388 366 l 274 366 l 274 573 l 324 573 q 417 545 387 573 q 447 470 447 517 "},"4":{"x_min":33,"x_max":791,"ha":812,"o":"m 791 0 l 791 154 l 665 154 l 665 733 l 415 733 l 33 141 l 33 0 l 457 0 l 457 -258 l 665 -223 l 665 0 l 791 0 m 458 154 l 229 154 l 458 508 l 458 154 "},"‡":{"x_min":67,"x_max":670,"ha":738,"o":"m 463 848 l 463 958 l 275 958 l 275 848 l 344 661 l 392 661 l 463 848 m 670 524 l 670 691 l 611 691 l 424 629 l 424 583 l 611 524 l 670 524 m 313 583 l 313 629 l 125 691 l 67 691 l 67 524 l 125 524 l 313 583 m 454 319 l 454 387 l 392 553 l 344 553 l 282 387 l 282 319 l 344 154 l 392 154 l 454 319 m 670 16 l 670 183 l 611 183 l 424 122 l 424 76 l 611 16 l 670 16 m 313 76 l 313 122 l 125 183 l 67 183 l 67 16 l 125 16 l 313 76 m 463 -253 l 463 -143 l 392 46 l 344 46 l 275 -143 l 275 -253 l 463 -253 "},"R":{"x_min":87,"x_max":841.390625,"ha":854,"o":"m 557 641 q 514 536 557 572 q 395 500 472 500 l 321 500 l 321 779 l 398 779 q 516 743 476 779 q 557 641 557 708 m 612 383 q 744 488 698 420 q 790 655 790 555 q 693 880 790 803 q 421 958 596 958 l 87 958 l 87 0 l 323 0 l 323 329 l 388 329 l 598 -10 l 841 30 l 612 383 "},"o":{"x_min":42,"x_max":734,"ha":776,"o":"m 734 361 q 707 515 734 445 q 634 633 681 584 q 524 708 588 681 q 388 736 461 736 q 251 708 314 736 q 141 632 187 681 q 68 513 94 583 q 42 359 42 444 q 68 206 42 274 q 140 88 94 137 q 249 12 186 38 q 386 -14 312 -14 q 524 13 460 -14 q 634 89 588 40 q 707 207 681 138 q 734 361 734 276 m 528 359 q 518 275 528 313 q 492 208 509 237 q 448 164 475 180 q 387 148 422 148 q 326 164 353 148 q 282 208 300 180 q 255 276 264 237 q 246 360 246 315 q 255 444 246 406 q 282 511 264 483 q 326 556 300 540 q 387 572 353 572 q 447 556 421 572 q 491 511 473 540 q 518 444 509 483 q 528 359 528 405 "},"5":{"x_min":37.71875,"x_max":666,"ha":715,"o":"m 666 105 q 645 217 666 169 q 590 297 625 265 q 506 346 554 329 q 403 363 458 363 q 323 357 358 363 q 260 340 289 351 l 260 540 l 643 540 l 617 723 l 78 723 l 78 189 l 226 161 q 279 178 254 172 q 336 184 304 184 q 414 161 383 184 q 445 86 445 138 q 427 20 445 50 q 377 -30 410 -8 q 299 -64 344 -52 q 196 -77 253 -77 q 114 -73 155 -77 q 37 -63 73 -70 l 65 -248 q 126 -255 94 -252 q 210 -258 158 -258 q 395 -232 311 -258 q 539 -159 479 -206 q 632 -44 599 -112 q 666 105 666 22 "}}}
